<mxfile host="65bd71144e">
    <diagram id="h9nil-DB28QWxsspg305" name="Page-1">
        <mxGraphModel dx="614" dy="599" grid="1" gridSize="10" guides="1" tooltips="1" connect="1" arrows="1" fold="1" page="1" pageScale="1" pageWidth="827" pageHeight="1169" math="0" shadow="0">
            <root>
                <mxCell id="0"/>
                <mxCell id="1" parent="0"/>
                <mxCell id="18" value="body" style="rounded=0;whiteSpace=wrap;html=1;verticalAlign=top;" parent="1" vertex="1">
                    <mxGeometry x="90" y="80" width="440" height="660" as="geometry"/>
                </mxCell>
                <mxCell id="2" value="main" style="rounded=0;whiteSpace=wrap;html=1;verticalAlign=top;" parent="1" vertex="1">
                    <mxGeometry x="115" y="120" width="380" height="280" as="geometry"/>
                </mxCell>
                <mxCell id="3" value=".footer" style="rounded=0;whiteSpace=wrap;html=1;verticalAlign=top;" parent="1" vertex="1">
                    <mxGeometry x="220" y="340" width="270" height="50" as="geometry"/>
                </mxCell>
                <mxCell id="4" value=".footer__content" style="rounded=0;whiteSpace=wrap;html=1;verticalAlign=top;" parent="1" vertex="1">
                    <mxGeometry x="232.5" y="360" width="245" height="30" as="geometry"/>
                </mxCell>
                <mxCell id="7" value="modal (no style needed -- z-index:1 ?" style="rounded=0;whiteSpace=wrap;html=1;verticalAlign=top;" parent="1" vertex="1">
                    <mxGeometry x="115" y="420" width="380" height="280" as="geometry"/>
                </mxCell>
                <mxCell id="8" value=".footer.modal__footer" style="rounded=0;whiteSpace=wrap;html=1;verticalAlign=top;" parent="1" vertex="1">
                    <mxGeometry x="220" y="640" width="270" height="50" as="geometry"/>
                </mxCell>
                <mxCell id="9" value=".footer__content" style="rounded=0;whiteSpace=wrap;html=1;verticalAlign=top;" parent="1" vertex="1">
                    <mxGeometry x="232.5" y="660" width="245" height="30" as="geometry"/>
                </mxCell>
                <mxCell id="11" value=".banner.modal__banner" style="rounded=0;whiteSpace=wrap;html=1;verticalAlign=top;" parent="1" vertex="1">
                    <mxGeometry x="220" y="450" width="270" height="50" as="geometry"/>
                </mxCell>
                <mxCell id="12" value=".banner__content" style="rounded=0;whiteSpace=wrap;html=1;verticalAlign=top;" parent="1" vertex="1">
                    <mxGeometry x="232.5" y="470" width="245" height="30" as="geometry"/>
                </mxCell>
                <mxCell id="13" value=".banner" style="rounded=0;whiteSpace=wrap;html=1;verticalAlign=top;" parent="1" vertex="1">
                    <mxGeometry x="220" y="150" width="270" height="50" as="geometry"/>
                </mxCell>
                <mxCell id="14" value=".banner__content" style="rounded=0;whiteSpace=wrap;html=1;verticalAlign=top;" parent="1" vertex="1">
                    <mxGeometry x="232.5" y="170" width="245" height="30" as="geometry"/>
                </mxCell>
                <mxCell id="15" value=".modal__content" style="rounded=0;whiteSpace=wrap;html=1;verticalAlign=top;" parent="1" vertex="1">
                    <mxGeometry x="220" y="510" width="270" height="120" as="geometry"/>
                </mxCell>
                <mxCell id="16" value="no restrictions&amp;nbsp; on overflow" style="text;strokeColor=none;align=left;fillColor=none;html=1;verticalAlign=middle;whiteSpace=wrap;rounded=0;fontColor=#FFCCCC;" parent="1" vertex="1">
                    <mxGeometry x="240" y="90" width="160" height="30" as="geometry"/>
                </mxCell>
                <mxCell id="19" value="overflow: hidden;" style="text;strokeColor=none;align=left;fillColor=none;html=1;verticalAlign=middle;whiteSpace=wrap;rounded=0;fontColor=#FFCCCC;" parent="1" vertex="1">
                    <mxGeometry x="280" y="255" width="160" height="30" as="geometry"/>
                </mxCell>
                <mxCell id="20" value="overflow-wrap: break-word;" style="text;strokeColor=none;align=left;fillColor=none;html=1;verticalAlign=middle;whiteSpace=wrap;rounded=0;fontColor=#FFCCCC;" parent="1" vertex="1">
                    <mxGeometry x="275" y="555" width="160" height="30" as="geometry"/>
                </mxCell>
                <mxCell id="21" value=".modal__bg" style="rounded=0;whiteSpace=wrap;html=1;verticalAlign=top;" vertex="1" parent="1">
                    <mxGeometry x="130" y="450" width="80" height="240" as="geometry"/>
                </mxCell>
                <mxCell id="23" value="position: fixed" style="text;strokeColor=none;align=left;fillColor=none;html=1;verticalAlign=middle;whiteSpace=wrap;rounded=0;fontColor=#FFCCCC;" vertex="1" parent="1">
                    <mxGeometry x="130" y="540" width="160" height="30" as="geometry"/>
                </mxCell>
                <mxCell id="24" value=".main__bg" style="rounded=0;whiteSpace=wrap;html=1;verticalAlign=top;" vertex="1" parent="1">
                    <mxGeometry x="130" y="150" width="80" height="240" as="geometry"/>
                </mxCell>
                <mxCell id="25" value="position: fixed" style="text;strokeColor=none;align=left;fillColor=none;html=1;verticalAlign=middle;whiteSpace=wrap;rounded=0;fontColor=#FFCCCC;" vertex="1" parent="1">
                    <mxGeometry x="130" y="245" width="160" height="30" as="geometry"/>
                </mxCell>
            </root>
        </mxGraphModel>
    </diagram>
</mxfile>